<svg width="20" height="20" viewBox="0 0 20 20" fill="none" xmlns="http://www.w3.org/2000/svg">
<path d="M6.23328 15.292L8.81661 17.292C9.14994 17.6254 9.89994 17.792 10.3999 17.792H13.5666C14.5666 17.792 15.6499 17.042 15.8999 16.042L17.8999 9.95871C18.3166 8.79205 17.5666 7.79205 16.3166 7.79205H12.9833C12.4833 7.79205 12.0666 7.37538 12.1499 6.79205L12.5666 4.12538C12.7333 3.37538 12.2333 2.54205 11.4833 2.29205C10.8166 2.04205 9.98328 2.37538 9.64994 2.87538L6.23328 7.95871" stroke="#7A7A7C" stroke-width="1.2" stroke-miterlimit="10"/>
<path d="M1.98328 15.293V7.1263C1.98328 5.95964 2.48328 5.54297 3.64994 5.54297H4.48328C5.64994 5.54297 6.14994 5.95964 6.14994 7.1263V15.293C6.14994 16.4596 5.64994 16.8763 4.48328 16.8763H3.64994C2.48328 16.8763 1.98328 16.4596 1.98328 15.293Z" stroke="#7A7A7C" stroke-width="1.2" stroke-linecap="round" stroke-linejoin="round"/>
</svg>
