<svg width="16" height="17" viewBox="0 0 16 17" fill="none" xmlns="http://www.w3.org/2000/svg">
<path d="M10.3848 8.50752C10.3848 9.82752 9.31812 10.8942 7.99812 10.8942C6.67812 10.8942 5.61145 9.82752 5.61145 8.50752C5.61145 7.18752 6.67812 6.12085 7.99812 6.12085C9.31812 6.12085 10.3848 7.18752 10.3848 8.50752Z" stroke="#7A7A7C" stroke-width="1.2" stroke-linecap="round" stroke-linejoin="round"/>
<path d="M7.9999 14.0062C10.3532 14.0062 12.5466 12.6196 14.0732 10.2196C14.6732 9.27956 14.6732 7.69957 14.0732 6.75957C12.5466 4.35957 10.3532 2.9729 7.9999 2.9729C5.64656 2.9729 3.45323 4.35957 1.92656 6.75957C1.32656 7.69957 1.32656 9.27956 1.92656 10.2196C3.45323 12.6196 5.64656 14.0062 7.9999 14.0062Z" stroke="#7A7A7C" stroke-width="1.2" stroke-linecap="round" stroke-linejoin="round"/>
</svg>
