<svg width="20" height="21" viewBox="0 0 20 21" fill="none" xmlns="http://www.w3.org/2000/svg">
<path d="M10 13C11.3807 13 12.5 11.8807 12.5 10.5C12.5 9.11929 11.3807 8 10 8C8.61929 8 7.5 9.11929 7.5 10.5C7.5 11.8807 8.61929 13 10 13Z" stroke="#A7A7A7" stroke-width="1.5" stroke-miterlimit="10" stroke-linecap="round" stroke-linejoin="round"/>
<path d="M1.66663 11.2339V9.76718C1.66663 8.90052 2.37496 8.18385 3.24996 8.18385C4.75829 8.18385 5.37496 7.11718 4.61663 5.80885C4.18329 5.05885 4.44163 4.08385 5.19996 3.65052L6.64163 2.82552C7.29996 2.43385 8.14996 2.66718 8.54163 3.32552L8.63329 3.48385C9.38329 4.79218 10.6166 4.79218 11.375 3.48385L11.4666 3.32552C11.8583 2.66718 12.7083 2.43385 13.3666 2.82552L14.8083 3.65052C15.5666 4.08385 15.825 5.05885 15.3916 5.80885C14.6333 7.11718 15.25 8.18385 16.7583 8.18385C17.625 8.18385 18.3416 8.89218 18.3416 9.76718V11.2339C18.3416 12.1005 17.6333 12.8172 16.7583 12.8172C15.25 12.8172 14.6333 13.8838 15.3916 15.1922C15.825 15.9505 15.5666 16.9172 14.8083 17.3505L13.3666 18.1755C12.7083 18.5672 11.8583 18.3339 11.4666 17.6755L11.375 17.5172C10.625 16.2089 9.39163 16.2089 8.63329 17.5172L8.54163 17.6755C8.14996 18.3339 7.29996 18.5672 6.64163 18.1755L5.19996 17.3505C4.44163 16.9172 4.18329 15.9422 4.61663 15.1922C5.37496 13.8838 4.75829 12.8172 3.24996 12.8172C2.37496 12.8172 1.66663 12.1005 1.66663 11.2339Z" stroke="#A7A7A7" stroke-width="1.5" stroke-miterlimit="10" stroke-linecap="round" stroke-linejoin="round"/>
</svg>
