<svg width="16" height="16" viewBox="0 0 16 16" fill="none" xmlns="http://www.w3.org/2000/svg">
<path d="M8.00008 12.3333C10.3933 12.3333 12.3334 10.3932 12.3334 7.99996C12.3334 5.60672 10.3933 3.66663 8.00008 3.66663C5.60685 3.66663 3.66675 5.60672 3.66675 7.99996C3.66675 10.3932 5.60685 12.3333 8.00008 12.3333Z" stroke="#4E4E50" stroke-linecap="round" stroke-linejoin="round"/>
<path d="M12.7599 12.76L12.6733 12.6734M12.6733 3.32671L12.7599 3.24004L12.6733 3.32671ZM3.23992 12.76L3.32659 12.6734L3.23992 12.76ZM7.99992 1.38671V1.33337V1.38671ZM7.99992 14.6667V14.6134V14.6667ZM1.38659 8.00004H1.33325H1.38659ZM14.6666 8.00004H14.6133H14.6666ZM3.32659 3.32671L3.23992 3.24004L3.32659 3.32671Z" stroke="#4E4E50" stroke-width="1.3" stroke-linecap="round" stroke-linejoin="round"/>
</svg>
