<svg width="20" height="20" viewBox="0 0 20 20" fill="none" xmlns="http://www.w3.org/2000/svg">
<path d="M13.7666 4.7085L11.1833 2.7085C10.85 2.37516 10.1 2.2085 9.59998 2.2085H6.43331C5.43331 2.2085 4.34998 2.9585 4.09998 3.9585L2.09998 10.0418C1.68331 11.2085 2.43331 12.2085 3.68331 12.2085H7.01665C7.51665 12.2085 7.93331 12.6252 7.84998 13.2085L7.43331 15.8752C7.26665 16.6252 7.76665 17.4585 8.51665 17.7085C9.18331 17.9585 10.0166 17.6252 10.35 17.1252L13.7666 12.0418" stroke="#7A7A7C" stroke-width="1.2" stroke-miterlimit="10"/>
<path d="M18.0166 4.70833V12.875C18.0166 14.0417 17.5166 14.4583 16.35 14.4583H15.5166C14.35 14.4583 13.85 14.0417 13.85 12.875V4.70833C13.85 3.54167 14.35 3.125 15.5166 3.125H16.35C17.5166 3.125 18.0166 3.54167 18.0166 4.70833Z" stroke="#7A7A7C" stroke-width="1.2" stroke-linecap="round" stroke-linejoin="round"/>
</svg>
