<svg width="16" height="17" viewBox="0 0 16 17" fill="none" xmlns="http://www.w3.org/2000/svg">
    <path d="M3.33301 7.16658H4.66634C5.99967 7.16658 6.66634 6.49992 6.66634 5.16658V3.83325C6.66634 2.49992 5.99967 1.83325 4.66634 1.83325H3.33301C1.99967 1.83325 1.33301 2.49992 1.33301 3.83325V5.16658C1.33301 6.49992 1.99967 7.16658 3.33301 7.16658Z"
          stroke="#5766ED" stroke-width="1.5" stroke-miterlimit="10" stroke-linecap="round" stroke-linejoin="round"/>
    <path d="M11.333 7.16658H12.6663C13.9997 7.16658 14.6663 6.49992 14.6663 5.16658V3.83325C14.6663 2.49992 13.9997 1.83325 12.6663 1.83325H11.333C9.99967 1.83325 9.33301 2.49992 9.33301 3.83325V5.16658C9.33301 6.49992 9.99967 7.16658 11.333 7.16658Z"
          stroke="#5766ED" stroke-width="1.5" stroke-miterlimit="10" stroke-linecap="round" stroke-linejoin="round"/>
    <path d="M11.333 15.1666H12.6663C13.9997 15.1666 14.6663 14.4999 14.6663 13.1666V11.8333C14.6663 10.4999 13.9997 9.83325 12.6663 9.83325H11.333C9.99967 9.83325 9.33301 10.4999 9.33301 11.8333V13.1666C9.33301 14.4999 9.99967 15.1666 11.333 15.1666Z"
          stroke="#5766ED" stroke-width="1.5" stroke-miterlimit="10" stroke-linecap="round" stroke-linejoin="round"/>
    <path d="M3.33301 15.1666H4.66634C5.99967 15.1666 6.66634 14.4999 6.66634 13.1666V11.8333C6.66634 10.4999 5.99967 9.83325 4.66634 9.83325H3.33301C1.99967 9.83325 1.33301 10.4999 1.33301 11.8333V13.1666C1.33301 14.4999 1.99967 15.1666 3.33301 15.1666Z"
          stroke="#5766ED" stroke-width="1.5" stroke-miterlimit="10" stroke-linecap="round" stroke-linejoin="round"/>
</svg>
