<svg width="16" height="17" viewBox="0 0 16 17" fill="none" xmlns="http://www.w3.org/2000/svg">
<path d="M14 4.48763C11.78 4.26763 9.54667 4.1543 7.32 4.1543C6 4.1543 4.68 4.22096 3.36 4.3543L2 4.48763" stroke="#FF5757" stroke-width="1.2" stroke-linecap="round" stroke-linejoin="round"/>
<path d="M5.66669 3.81398L5.81335 2.94065C5.92002 2.30732 6.00002 1.83398 7.12669 1.83398H8.87335C10 1.83398 10.0867 2.33398 10.1867 2.94732L10.3334 3.81398" stroke="#FF5757" stroke-width="1.2" stroke-linecap="round" stroke-linejoin="round"/>
<path d="M12.5667 6.59375L12.1334 13.3071C12.06 14.3537 12 15.1671 10.14 15.1671H5.86002C4.00002 15.1671 3.94002 14.3537 3.86668 13.3071L3.43335 6.59375" stroke="#FF5757" stroke-width="1.2" stroke-linecap="round" stroke-linejoin="round"/>
<path d="M6.88666 11.5H9.10666" stroke="#FF5757" stroke-width="1.2" stroke-linecap="round" stroke-linejoin="round"/>
<path d="M6.33331 8.83398H9.66665" stroke="#FF5757" stroke-width="1.2" stroke-linecap="round" stroke-linejoin="round"/>
</svg>
