<svg width="16" height="17" viewBox="0 0 16 17" fill="none" xmlns="http://www.w3.org/2000/svg">
    <path d="M7.33276 1.83325H5.99943C2.6661 1.83325 1.33276 3.16659 1.33276 6.49992V10.4999C1.33276 13.8333 2.6661 15.1666 5.99943 15.1666H9.99943C13.3328 15.1666 14.6661 13.8333 14.6661 10.4999V9.16658"
          stroke="#7A7A7C" stroke-width="1.2" stroke-linecap="round" stroke-linejoin="round"/>
    <path d="M10.6935 2.51301L5.44016 7.76635C5.24016 7.96635 5.04016 8.35968 5.00016 8.64635L4.7135 10.653C4.60683 11.3797 5.12016 11.8863 5.84683 11.7863L7.8535 11.4997C8.1335 11.4597 8.52683 11.2597 8.7335 11.0597L13.9868 5.80635C14.8935 4.89968 15.3202 3.84635 13.9868 2.51301C12.6535 1.17968 11.6002 1.60635 10.6935 2.51301Z"
          stroke="#7A7A7C" stroke-width="1.2" stroke-miterlimit="10" stroke-linecap="round" stroke-linejoin="round"/>
    <path d="M9.93945 3.2666C10.3861 4.85994 11.6328 6.1066 13.2328 6.55994" stroke="#7A7A7C" stroke-width="1.2"
          stroke-miterlimit="10" stroke-linecap="round" stroke-linejoin="round"/>
</svg>
