<svg width="16" height="17" viewBox="0 0 16 17" fill="none" xmlns="http://www.w3.org/2000/svg">
<path d="M7.33331 1.83398H5.99998C2.66665 1.83398 1.33331 3.16732 1.33331 6.50065V10.5007C1.33331 13.834 2.66665 15.1673 5.99998 15.1673H9.99998C13.3333 15.1673 14.6666 13.834 14.6666 10.5007V9.16732" stroke="#4E4E50" stroke-width="1.2" stroke-linecap="round" stroke-linejoin="round"/>
<path d="M10.6933 2.5135L5.43998 7.76684C5.23998 7.96684 5.03998 8.36017 4.99998 8.64684L4.71331 10.6535C4.60665 11.3802 5.11998 11.8868 5.84665 11.7868L7.85331 11.5002C8.13331 11.4602 8.52665 11.2602 8.73331 11.0602L13.9866 5.80684C14.8933 4.90017 15.32 3.84684 13.9866 2.5135C12.6533 1.18017 11.6 1.60684 10.6933 2.5135Z" stroke="#4E4E50" stroke-width="1.2" stroke-miterlimit="10" stroke-linecap="round" stroke-linejoin="round"/>
<path d="M9.94 3.26758C10.3867 4.86091 11.6333 6.10758 13.2333 6.56091" stroke="#4E4E50" stroke-width="1.2" stroke-miterlimit="10" stroke-linecap="round" stroke-linejoin="round"/>
</svg>
