<svg width="16" height="16" viewBox="0 0 16 16" fill="none" xmlns="http://www.w3.org/2000/svg">
<path d="M6.33331 9.16682C6.33331 9.81349 6.83332 10.3335 7.44666 10.3335H8.69997C9.2333 10.3335 9.66665 9.88015 9.66665 9.31349C9.66665 8.70682 9.39999 8.48682 9.00665 8.34682L6.99998 7.64682C6.60665 7.50682 6.33999 7.29349 6.33999 6.68016C6.33999 6.12016 6.77331 5.66016 7.30664 5.66016H8.55998C9.17331 5.66016 9.67332 6.18016 9.67332 6.82682" stroke="#5766ED" stroke-width="1.2" stroke-linecap="round" stroke-linejoin="round"/>
<path d="M8 5V11" stroke="#5766ED" stroke-width="1.2" stroke-linecap="round" stroke-linejoin="round"/>
<path d="M14.6668 7.9987C14.6668 11.6787 11.6802 14.6654 8.00016 14.6654C4.32016 14.6654 1.3335 11.6787 1.3335 7.9987C1.3335 4.3187 4.32016 1.33203 8.00016 1.33203" stroke="#5766ED" stroke-width="1.2" stroke-linecap="round" stroke-linejoin="round"/>
<path d="M14.6671 2.95508H11.3032" stroke="#5766ED" stroke-width="1.2" stroke-miterlimit="10" stroke-linecap="round" stroke-linejoin="round"/>
<path d="M12.9833 1.30859V4.68379" stroke="#5766ED" stroke-width="1.2" stroke-miterlimit="10" stroke-linecap="round" stroke-linejoin="round"/>
</svg>
