<svg width="18" height="19" viewBox="0 0 18 19" fill="none" xmlns="http://www.w3.org/2000/svg">
<path d="M10.8979 7.60195L7.10293 11.397C6.61543 10.9095 6.31543 10.242 6.31543 9.49945C6.31543 8.01445 7.51543 6.81445 9.00043 6.81445C9.74293 6.81445 10.4104 7.11445 10.8979 7.60195Z" stroke="#A7A7A7" stroke-width="1.2" stroke-linecap="round" stroke-linejoin="round"/>
<path d="M13.3649 4.82687C12.0524 3.83687 10.5524 3.29688 8.99988 3.29688C6.35238 3.29688 3.88488 4.85687 2.16738 7.55687C1.49238 8.61437 1.49238 10.3919 2.16738 11.4494C2.75988 12.3794 3.44988 13.1819 4.19988 13.8269" stroke="#A7A7A7" stroke-width="1.2" stroke-linecap="round" stroke-linejoin="round"/>
<path d="M6.31543 15.1473C7.17043 15.5073 8.07793 15.7023 9.00043 15.7023C11.6479 15.7023 14.1154 14.1423 15.8329 11.4423C16.5079 10.3848 16.5079 8.60727 15.8329 7.54977C15.5854 7.15977 15.3154 6.79227 15.0379 6.44727" stroke="#A7A7A7" stroke-width="1.2" stroke-linecap="round" stroke-linejoin="round"/>
<path d="M11.6326 10.0254C11.4376 11.0829 10.5751 11.9454 9.51758 12.1404" stroke="#A7A7A7" stroke-width="1.2" stroke-linecap="round" stroke-linejoin="round"/>
<path d="M7.1025 11.3984L1.5 17.0009" stroke="#A7A7A7" stroke-width="1.2" stroke-linecap="round" stroke-linejoin="round"/>
<path d="M16.5 2L10.8975 7.6025" stroke="#A7A7A7" stroke-width="1.2" stroke-linecap="round" stroke-linejoin="round"/>
</svg>
