<svg width="16" height="17" viewBox="0 0 16 17" fill="none" xmlns="http://www.w3.org/2000/svg">
<path d="M5.66665 13.1663H5.33331C2.66665 13.1663 1.33331 12.4997 1.33331 9.16634V5.83301C1.33331 3.16634 2.66665 1.83301 5.33331 1.83301H10.6666C13.3333 1.83301 14.6666 3.16634 14.6666 5.83301V9.16634C14.6666 11.833 13.3333 13.1663 10.6666 13.1663H10.3333C10.1266 13.1663 9.92665 13.2663 9.79998 13.433L8.79998 14.7663C8.35998 15.353 7.63998 15.353 7.19998 14.7663L6.19998 13.433C6.09331 13.2863 5.84665 13.1663 5.66665 13.1663Z" stroke="#7A7A7C" stroke-width="1.2" stroke-miterlimit="10" stroke-linecap="round" stroke-linejoin="round"/>
<path d="M4.66669 5.83301H11.3334" stroke="#7A7A7C" stroke-width="1.2" stroke-linecap="round" stroke-linejoin="round"/>
<path d="M4.66669 9.16699H8.66669" stroke="#7A7A7C" stroke-width="1.2" stroke-linecap="round" stroke-linejoin="round"/>
</svg>
