<svg width="12" height="17" viewBox="0 0 12 17" fill="none" xmlns="http://www.w3.org/2000/svg">
    <path fill-rule="evenodd" clip-rule="evenodd"
          d="M5.99969 1.5C4.76626 1.5 3.66919 1.9315 2.87849 2.62168L2.87826 2.62189C2.77319 2.71348 2.67376 2.80944 2.58035 2.90937C1.97819 3.55675 1.62469 4.37251 1.62469 5.2375C1.62469 5.82632 1.78593 6.36634 2.06884 6.82928L2.06944 6.83026C2.76258 7.97038 4.23009 8.75 5.99969 8.75C7.7693 8.75 9.23681 7.97038 9.92995 6.83026L9.93055 6.82928C10.2135 6.36634 10.3747 5.82632 10.3747 5.2375C10.3747 4.23174 9.90552 3.30567 9.12101 2.61429C8.32968 1.931 7.23235 1.5 5.99969 1.5ZM10.3747 7.91419C9.38283 9.07262 7.76947 9.75 5.99969 9.75C4.22992 9.75 2.61655 9.07262 1.62469 7.91419V8.98718C1.62469 10.9555 3.47695 12.4997 5.99969 12.4997C8.52244 12.4997 10.3747 10.9555 10.3747 8.98718V7.91419ZM11.3747 8.98718V8.9875V11.7622C11.3747 14.4418 8.90027 16.4997 5.99969 16.4997C3.09911 16.4997 0.624695 14.4418 0.624695 11.7622V8.9875V8.98718V5.2375C0.624695 3.78945 1.34729 2.52296 2.46926 1.66467C3.42008 0.932604 4.6536 0.5 5.99969 0.5C7.46615 0.5 8.79814 1.01338 9.77668 1.85923L9.7801 1.86219L9.78008 1.86221C10.7495 2.71567 11.3747 3.90399 11.3747 5.2375V8.98718ZM1.62469 11.6707V11.7622C1.62469 13.7626 3.51527 15.4997 5.99969 15.4997C8.48411 15.4997 10.3747 13.7626 10.3747 11.7622V11.6707C9.38142 12.8217 7.75638 13.5 5.99969 13.5C4.24301 13.5 2.61797 12.8217 1.62469 11.6707Z"
          fill="#4E4E50"/>
</svg>
