<svg width="17.000000" height="14.000000" viewBox="0 0 17 14" fill="none" xmlns="http://www.w3.org/2000/svg"
>
    <desc>
        Created with Pixso.
    </desc>
    <defs/>
    <path id="Vector"
          d="M16.99 1.19C16.76 3.65 15.74 9.63 15.22 12.39C15 13.55 14.56 13.94 14.15 13.99C13.24 14.07 12.55 13.4 11.67 12.82C10.29 11.92 9.51 11.36 8.17 10.49C6.62 9.47 7.62 8.91 8.52 8.01C8.75 7.78 12.77 4.15 12.85 3.82C12.86 3.77 12.86 3.72 12.84 3.67C12.83 3.63 12.81 3.58 12.77 3.54C12.68 3.47 12.55 3.5 12.44 3.51C12.3 3.54 10.1 4.99 5.82 7.86C5.19 8.28 4.63 8.49 4.12 8.48C3.56 8.46 2.49 8.17 1.69 7.9C0.7 7.59 -0.06 7.42 0 6.88C0.03 6.6 0.42 6.31 1.16 6.02C5.74 4.04 8.78 2.73 10.31 2.11C14.67 0.31 15.56 0 16.16 0C16.28 0 16.58 0.03 16.77 0.18C16.93 0.31 16.98 0.48 16.99 0.6C16.98 0.7 17.01 0.98 16.99 1.19Z"
          fill="#FFFFFF" fill-opacity="0.700000" fill-rule="nonzero"/>
</svg>
