<svg width="17.000000" height="11.000000" viewBox="0 0 17 11" fill="none" xmlns="http://www.w3.org/2000/svg"
>
    <desc>
        Created with Pixso.
    </desc>
    <defs/>
    <path id="Vector"
          d="M0 0L2.92 0C3.01 5.04 5.15 7.17 6.85 7.61L6.85 0L9.59 0L9.59 4.35C11.26 4.16 13.03 2.18 13.62 0L16.36 0C16.14 1.13 15.69 2.2 15.05 3.14C14.41 4.08 13.59 4.88 12.64 5.48C13.7 6.03 14.64 6.8 15.39 7.75C16.14 8.7 16.69 9.81 17 11L13.98 11C13.34 8.91 11.72 7.29 9.59 7.07L9.59 11L9.25 11C3.44 11 0.13 6.87 0 0Z"
          fill="#FFFFFF" fill-opacity="0.700000" fill-rule="nonzero"/>
</svg>
