<svg width="15.166992" height="18.001953" viewBox="0 0 15.167 18.002" fill="none" xmlns="http://www.w3.org/2000/svg"
>
    <desc>
        Created with Pixso.
    </desc>
    <defs/>
    <path id="Vector"
          d="M12.63 17.27C11.65 18.23 10.58 18.08 9.55 17.62C8.46 17.16 7.46 17.14 6.31 17.62C4.87 18.25 4.11 18.06 3.25 17.27C-1.63 12.25 -0.91 4.58 4.63 4.31C5.98 4.37 6.92 5.04 7.71 5.1C8.89 4.87 10.02 4.18 11.28 4.27C12.79 4.39 13.93 4.99 14.68 6.06C11.56 7.93 12.3 12.04 15.16 13.2C14.59 14.7 13.85 16.18 12.62 17.29L12.63 17.27ZM7.61 4.25C7.46 2.02 9.27 0.18 11.35 0C11.64 2.58 9.01 4.5 7.61 4.25Z"
          fill="#FFFFFF" fill-opacity="0.600000" fill-rule="nonzero"/>
</svg>
