<svg width="24" height="24" viewBox="0 0 24 24" fill="none" xmlns="http://www.w3.org/2000/svg">
<path d="M24 3V7.99663C21.7582 6.69985 20.25 4.27606 20.25 1.5C20.25 0.986302 20.3017 0.484664 20.4 0H21C22.6569 0 24 1.34315 24 3Z" fill="#222224"/>
<path d="M16.5 1.5C16.5 6.39832 19.6305 10.5655 24 12.1099V16.8008C17.112 15.1185 12 8.90623 12 1.5C12 0.994074 12.0238 0.49372 12.0705 0H16.5991C16.5338 0.490705 16.5 0.991412 16.5 1.5Z" fill="#2D40E8"/>
<path d="M24 20.6398C15.0246 18.8914 8.25 10.9869 8.25 1.5C8.25 0.995293 8.26917 0.495063 8.30683 0H3C1.34315 0 0 1.34315 0 3V3.11467C4.67263 3.83618 8.25 7.87532 8.25 12.75C8.25 17.5159 4.83055 21.4831 0.311222 22.3321C0.801888 23.3206 1.8216 24 3 24H21C22.6569 24 24 22.6569 24 21V20.6398Z" fill="#222224"/>
<path d="M0 18.561C2.58784 17.8949 4.5 15.5458 4.5 12.75C4.5 9.95424 2.58784 7.60509 0 6.93903V18.561Z" fill="#2D40E8"/>
</svg>
