<svg width="32" height="32" viewBox="0 0 32 32" fill="none" xmlns="http://www.w3.org/2000/svg">
<path d="M32 4V10.6622C29.011 8.93313 27 5.70141 27 2C27 1.31507 27.0689 0.646219 27.2 0H28C30.2091 0 32 1.79086 32 4Z" fill="#222224"/>
<path d="M22 2C22 8.53109 26.174 14.0873 32 16.1465V22.4011C22.816 20.158 16 11.875 16 2C16 1.32543 16.0318 0.658293 16.094 0H22.1322C22.045 0.654274 22 1.32188 22 2Z" fill="#2D40E8"/>
<path d="M32 27.5197C20.0328 25.1886 11 14.6491 11 2C11 1.32706 11.0256 0.660084 11.0758 0H4C1.79086 0 0 1.79086 0 4V4.1529C6.23018 5.11491 11 10.5004 11 17C11 23.3545 6.44074 28.6441 0.414963 29.7761C1.06918 31.0941 2.4288 32 4 32H28C30.2091 32 32 30.2091 32 28V27.5197Z" fill="#222224"/>
<path d="M0 24.748C3.45045 23.8599 6 20.7277 6 17C6 13.2723 3.45045 10.1401 0 9.25204V24.748Z" fill="#2D40E8"/>
</svg>
